v -0.00756 -0.03147 0.00000
v -0.00528 -0.02653 0.00000
v -0.00339 -0.02142 0.00000
v -0.00192 -0.01618 0.00000
v -0.00085 -0.01084 0.00000
v -0.00021 -0.00544 0.00000
v 0.00000 0.00000 0.00000
v -0.00021 0.00544 0.00000
v -0.00085 0.01084 0.00000
v -0.00192 0.01618 0.00000
v -0.00339 0.02142 0.00000
v -0.00528 0.02653 0.00000
v -0.00756 0.03147 0.00000
v -0.00840 -0.03104 0.00529
v -0.00616 -0.02616 0.00529
v -0.00430 -0.02113 0.00529
v -0.00284 -0.01596 0.00529
v -0.00179 -0.01069 0.00529
v -0.00116 -0.00536 0.00529
v -0.00095 0.00000 0.00529
v -0.00116 0.00536 0.00529
v -0.00179 0.01069 0.00529
v -0.00284 0.01596 0.00529
v -0.00430 0.02113 0.00529
v -0.00616 0.02616 0.00529
v -0.00840 0.03104 0.00529
v -0.00961 -0.03042 0.01049
v -0.00741 -0.02564 0.01049
v -0.00559 -0.02071 0.01049
v -0.00416 -0.01564 0.01049
v -0.00313 -0.01048 0.01049
v -0.00251 -0.00526 0.01049
v -0.00231 0.00000 0.01049
v -0.00251 0.00526 0.01049
v -0.00313 0.01048 0.01049
v -0.00416 0.01564 0.01049
v -0.00559 0.02071 0.01049
v -0.00741 0.02564 0.01049
v -0.00961 0.03042 0.01049
v -0.01117 -0.02963 0.01557
v -0.00902 -0.02497 0.01557
v -0.00725 -0.02017 0.01557
v -0.00586 -0.01524 0.01557
v -0.00486 -0.01021 0.01557
v -0.00426 -0.00512 0.01557
v -0.00406 0.00000 0.01557
v -0.00426 0.00512 0.01557
v -0.00486 0.01021 0.01557
v -0.00586 0.01524 0.01557
v -0.00725 0.02017 0.01557
v -0.00902 0.02497 0.01557
v -0.01117 0.02963 0.01557
v -0.01307 -0.02866 0.02050
v -0.01100 -0.02416 0.02050
v -0.00928 -0.01951 0.02050
v -0.00793 -0.01474 0.02050
v -0.00697 -0.00988 0.02050
v -0.00639 -0.00495 0.02050
v -0.00619 0.00000 0.02050
v -0.00639 0.00495 0.02050
v -0.00697 0.00988 0.02050
v -0.00793 0.01474 0.02050
v -0.00928 0.01951 0.02050
v -0.01100 0.02416 0.02050
v -0.01307 0.02866 0.02050
v -0.01530 -0.02752 0.02526
v -0.01331 -0.02320 0.02526
v -0.01166 -0.01873 0.02526
v -0.01037 -0.01415 0.02526
v -0.00944 -0.00948 0.02526
v -0.00888 -0.00476 0.02526
v -0.00870 0.00000 0.02526
v -0.00888 0.00476 0.02526
v -0.00944 0.00948 0.02526
v -0.01037 0.01415 0.02526
v -0.01166 0.01873 0.02526
v -0.01331 0.02320 0.02526
v -0.01530 0.02752 0.02526
v -0.01786 -0.02622 0.02981
v -0.01596 -0.02210 0.02981
v -0.01439 -0.01785 0.02981
v -0.01316 -0.01348 0.02981
v -0.01227 -0.00904 0.02981
v -0.01174 -0.00453 0.02981
v -0.01156 0.00000 0.02981
v -0.01174 0.00453 0.02981
v -0.01227 0.00904 0.02981
v -0.01316 0.01348 0.02981
v -0.01439 0.01785 0.02981
v -0.01596 0.02210 0.02981
v -0.01786 0.02622 0.02981
v -0.02071 -0.02477 0.03412
v -0.01892 -0.02088 0.03412
v -0.01744 -0.01686 0.03412
v -0.01627 -0.01274 0.03412
v -0.01544 -0.00853 0.03412
v -0.01493 -0.00428 0.03412
v -0.01477 0.00000 0.03412
v -0.01493 0.00428 0.03412
v -0.01544 0.00853 0.03412
v -0.01627 0.01274 0.03412
v -0.01744 0.01686 0.03412
v -0.01892 0.02088 0.03412
v -0.02071 0.02477 0.03412
v -0.02385 -0.02317 0.03818
v -0.02218 -0.01953 0.03818
v -0.02079 -0.01577 0.03818
v -0.01970 -0.01191 0.03818
v -0.01892 -0.00798 0.03818
v -0.01845 -0.00400 0.03818
v -0.01829 0.00000 0.03818
v -0.01845 0.00400 0.03818
v -0.01892 0.00798 0.03818
v -0.01970 0.01191 0.03818
v -0.02079 0.01577 0.03818
v -0.02218 0.01953 0.03818
v -0.02385 0.02317 0.03818
v -0.02726 -0.02143 0.04195
v -0.02571 -0.01806 0.04195
v -0.02443 -0.01459 0.04195
v -0.02342 -0.01102 0.04195
v -0.02270 -0.00738 0.04195
v -0.02226 -0.00370 0.04195
v -0.02212 0.00000 0.04195
v -0.02226 0.00370 0.04195
v -0.02270 0.00738 0.04195
v -0.02342 0.01102 0.04195
v -0.02443 0.01459 0.04195
v -0.02571 0.01806 0.04195
v -0.02726 0.02143 0.04195
v -0.03092 -0.01957 0.04542
v -0.02950 -0.01649 0.04542
v -0.02833 -0.01332 0.04542
v -0.02741 -0.01006 0.04542
v -0.02675 -0.00674 0.04542
v -0.02636 -0.00338 0.04542
v -0.02622 0.00000 0.04542
v -0.02636 0.00338 0.04542
v -0.02675 0.00674 0.04542
v -0.02741 0.01006 0.04542
v -0.02833 0.01332 0.04542
v -0.02950 0.01649 0.04542
v -0.03092 0.01957 0.04542
v -0.01461 -0.02787 -0.00111
v -0.01260 -0.02350 -0.00111
v -0.01093 -0.01897 -0.00111
v -0.00962 -0.01433 -0.00111
v -0.00868 -0.00960 -0.00111
v -0.00811 -0.00482 -0.00111
v -0.00792 0.00000 -0.00111
v -0.00811 0.00482 -0.00111
v -0.00868 0.00960 -0.00111
v -0.00962 0.01433 -0.00111
v -0.01093 0.01897 -0.00111
v -0.01260 0.02350 -0.00111
v -0.01461 0.02787 -0.00111
v -0.01537 -0.02749 0.00357
v -0.01337 -0.02317 0.00357
v -0.01173 -0.01871 0.00357
v -0.01044 -0.01414 0.00357
v -0.00951 -0.00947 0.00357
v -0.00895 -0.00475 0.00357
v -0.00877 0.00000 0.00357
v -0.00895 0.00475 0.00357
v -0.00951 0.00947 0.00357
v -0.01044 0.01414 0.00357
v -0.01173 0.01871 0.00357
v -0.01337 0.02317 0.00357
v -0.01537 0.02749 0.00357
v -0.01643 -0.02695 0.00818
v -0.01448 -0.02271 0.00818
v -0.01287 -0.01834 0.00818
v -0.01160 -0.01386 0.00818
v -0.01070 -0.00928 0.00818
v -0.01015 -0.00466 0.00818
v -0.00996 0.00000 0.00818
v -0.01015 0.00466 0.00818
v -0.01070 0.00928 0.00818
v -0.01160 0.01386 0.00818
v -0.01287 0.01834 0.00818
v -0.01448 0.02271 0.00818
v -0.01643 0.02695 0.00818
v -0.01781 -0.02624 0.01268
v -0.01591 -0.02212 0.01268
v -0.01434 -0.01786 0.01268
v -0.01311 -0.01349 0.01268
v -0.01223 -0.00904 0.01268
v -0.01169 -0.00454 0.01268
v -0.01151 0.00000 0.01268
v -0.01169 0.00454 0.01268
v -0.01223 0.00904 0.01268
v -0.01311 0.01349 0.01268
v -0.01434 0.01786 0.01268
v -0.01591 0.02212 0.01268
v -0.01781 0.02624 0.01268
v -0.01950 -0.02538 0.01705
v -0.01766 -0.02140 0.01705
v -0.01614 -0.01728 0.01705
v -0.01495 -0.01305 0.01705
v -0.01409 -0.00875 0.01705
v -0.01358 -0.00439 0.01705
v -0.01341 0.00000 0.01705
v -0.01358 0.00439 0.01705
v -0.01409 0.00875 0.01705
v -0.01495 0.01305 0.01705
v -0.01614 0.01728 0.01705
v -0.01766 0.02140 0.01705
v -0.01950 0.02538 0.01705
v -0.02148 -0.02438 0.02126
v -0.01971 -0.02055 0.02126
v -0.01825 -0.01659 0.02126
v -0.01711 -0.01253 0.02126
v -0.01629 -0.00840 0.02126
v -0.01579 -0.00421 0.02126
v -0.01563 0.00000 0.02126
v -0.01579 0.00421 0.02126
v -0.01629 0.00840 0.02126
v -0.01711 0.01253 0.02126
v -0.01825 0.01659 0.02126
v -0.01971 0.02055 0.02126
v -0.02148 0.02438 0.02126
v -0.02374 -0.02322 0.02529
v -0.02206 -0.01958 0.02529
v -0.02067 -0.01581 0.02529
v -0.01958 -0.01194 0.02529
v -0.01879 -0.00800 0.02529
v -0.01832 -0.00401 0.02529
v -0.01816 0.00000 0.02529
v -0.01832 0.00401 0.02529
v -0.01879 0.00800 0.02529
v -0.01958 0.01194 0.02529
v -0.02067 0.01581 0.02529
v -0.02206 0.01958 0.02529
v -0.02374 0.02322 0.02529
v -0.02627 -0.02194 0.02911
v -0.02468 -0.01849 0.02911
v -0.02336 -0.01493 0.02911
v -0.02233 -0.01128 0.02911
v -0.02159 -0.00756 0.02911
v -0.02115 -0.00379 0.02911
v -0.02100 0.00000 0.02911
v -0.02115 0.00379 0.02911
v -0.02159 0.00756 0.02911
v -0.02233 0.01128 0.02911
v -0.02336 0.01493 0.02911
v -0.02468 0.01849 0.02911
v -0.02627 0.02194 0.02911
v -0.02905 -0.02052 0.03270
v -0.02756 -0.01730 0.03270
v -0.02633 -0.01397 0.03270
v -0.02537 -0.01055 0.03270
v -0.02468 -0.00707 0.03270
v -0.02426 -0.00355 0.03270
v -0.02412 0.00000 0.03270
v -0.02426 0.00355 0.03270
v -0.02468 0.00707 0.03270
v -0.02537 0.01055 0.03270
v -0.02633 0.01397 0.03270
v -0.02756 0.01730 0.03270
v -0.02905 0.02052 0.03270
v -0.03207 -0.01898 0.03604
v -0.03069 -0.01600 0.03604
v -0.02956 -0.01292 0.03604
v -0.02867 -0.00976 0.03604
v -0.02803 -0.00654 0.03604
v -0.02764 -0.00328 0.03604
v -0.02751 0.00000 0.03604
v -0.02764 0.00328 0.03604
v -0.02803 0.00654 0.03604
v -0.02867 0.00976 0.03604
v -0.02956 0.01292 0.03604
v -0.03069 0.01600 0.03604
v -0.03207 0.01898 0.03604
v -0.03531 -0.01733 0.03911
v -0.03405 -0.01461 0.03911
v -0.03302 -0.01180 0.03911
v -0.03220 -0.00891 0.03911
v -0.03162 -0.00597 0.03911
v -0.03127 -0.00299 0.03911
v -0.03115 0.00000 0.03911
v -0.03127 0.00299 0.03911
v -0.03162 0.00597 0.03911
v -0.03220 0.00891 0.03911
v -0.03302 0.01180 0.03911
v -0.03405 0.01461 0.03911
v -0.03531 0.01733 0.03911
f 1 2 15
f 1 15 14
f 144 158 145
f 144 157 158
f 2 3 16
f 2 16 15
f 145 159 146
f 145 158 159
f 3 4 17
f 3 17 16
f 146 160 147
f 146 159 160
f 4 5 18
f 4 18 17
f 147 161 148
f 147 160 161
f 5 6 19
f 5 19 18
f 148 162 149
f 148 161 162
f 6 7 20
f 6 20 19
f 149 163 150
f 149 162 163
f 7 8 21
f 7 21 20
f 150 164 151
f 150 163 164
f 8 9 22
f 8 22 21
f 151 165 152
f 151 164 165
f 9 10 23
f 9 23 22
f 152 166 153
f 152 165 166
f 10 11 24
f 10 24 23
f 153 167 154
f 153 166 167
f 11 12 25
f 11 25 24
f 154 168 155
f 154 167 168
f 12 13 26
f 12 26 25
f 155 169 156
f 155 168 169
f 14 15 28
f 14 28 27
f 157 171 158
f 157 170 171
f 15 16 29
f 15 29 28
f 158 172 159
f 158 171 172
f 16 17 30
f 16 30 29
f 159 173 160
f 159 172 173
f 17 18 31
f 17 31 30
f 160 174 161
f 160 173 174
f 18 19 32
f 18 32 31
f 161 175 162
f 161 174 175
f 19 20 33
f 19 33 32
f 162 176 163
f 162 175 176
f 20 21 34
f 20 34 33
f 163 177 164
f 163 176 177
f 21 22 35
f 21 35 34
f 164 178 165
f 164 177 178
f 22 23 36
f 22 36 35
f 165 179 166
f 165 178 179
f 23 24 37
f 23 37 36
f 166 180 167
f 166 179 180
f 24 25 38
f 24 38 37
f 167 181 168
f 167 180 181
f 25 26 39
f 25 39 38
f 168 182 169
f 168 181 182
f 27 28 41
f 27 41 40
f 170 184 171
f 170 183 184
f 28 29 42
f 28 42 41
f 171 185 172
f 171 184 185
f 29 30 43
f 29 43 42
f 172 186 173
f 172 185 186
f 30 31 44
f 30 44 43
f 173 187 174
f 173 186 187
f 31 32 45
f 31 45 44
f 174 188 175
f 174 187 188
f 32 33 46
f 32 46 45
f 175 189 176
f 175 188 189
f 33 34 47
f 33 47 46
f 176 190 177
f 176 189 190
f 34 35 48
f 34 48 47
f 177 191 178
f 177 190 191
f 35 36 49
f 35 49 48
f 178 192 179
f 178 191 192
f 36 37 50
f 36 50 49
f 179 193 180
f 179 192 193
f 37 38 51
f 37 51 50
f 180 194 181
f 180 193 194
f 38 39 52
f 38 52 51
f 181 195 182
f 181 194 195
f 40 41 54
f 40 54 53
f 183 197 184
f 183 196 197
f 41 42 55
f 41 55 54
f 184 198 185
f 184 197 198
f 42 43 56
f 42 56 55
f 185 199 186
f 185 198 199
f 43 44 57
f 43 57 56
f 186 200 187
f 186 199 200
f 44 45 58
f 44 58 57
f 187 201 188
f 187 200 201
f 45 46 59
f 45 59 58
f 188 202 189
f 188 201 202
f 46 47 60
f 46 60 59
f 189 203 190
f 189 202 203
f 47 48 61
f 47 61 60
f 190 204 191
f 190 203 204
f 48 49 62
f 48 62 61
f 191 205 192
f 191 204 205
f 49 50 63
f 49 63 62
f 192 206 193
f 192 205 206
f 50 51 64
f 50 64 63
f 193 207 194
f 193 206 207
f 51 52 65
f 51 65 64
f 194 208 195
f 194 207 208
f 53 54 67
f 53 67 66
f 196 210 197
f 196 209 210
f 54 55 68
f 54 68 67
f 197 211 198
f 197 210 211
f 55 56 69
f 55 69 68
f 198 212 199
f 198 211 212
f 56 57 70
f 56 70 69
f 199 213 200
f 199 212 213
f 57 58 71
f 57 71 70
f 200 214 201
f 200 213 214
f 58 59 72
f 58 72 71
f 201 215 202
f 201 214 215
f 59 60 73
f 59 73 72
f 202 216 203
f 202 215 216
f 60 61 74
f 60 74 73
f 203 217 204
f 203 216 217
f 61 62 75
f 61 75 74
f 204 218 205
f 204 217 218
f 62 63 76
f 62 76 75
f 205 219 206
f 205 218 219
f 63 64 77
f 63 77 76
f 206 220 207
f 206 219 220
f 64 65 78
f 64 78 77
f 207 221 208
f 207 220 221
f 66 67 80
f 66 80 79
f 209 223 210
f 209 222 223
f 67 68 81
f 67 81 80
f 210 224 211
f 210 223 224
f 68 69 82
f 68 82 81
f 211 225 212
f 211 224 225
f 69 70 83
f 69 83 82
f 212 226 213
f 212 225 226
f 70 71 84
f 70 84 83
f 213 227 214
f 213 226 227
f 71 72 85
f 71 85 84
f 214 228 215
f 214 227 228
f 72 73 86
f 72 86 85
f 215 229 216
f 215 228 229
f 73 74 87
f 73 87 86
f 216 230 217
f 216 229 230
f 74 75 88
f 74 88 87
f 217 231 218
f 217 230 231
f 75 76 89
f 75 89 88
f 218 232 219
f 218 231 232
f 76 77 90
f 76 90 89
f 219 233 220
f 219 232 233
f 77 78 91
f 77 91 90
f 220 234 221
f 220 233 234
f 79 80 93
f 79 93 92
f 222 236 223
f 222 235 236
f 80 81 94
f 80 94 93
f 223 237 224
f 223 236 237
f 81 82 95
f 81 95 94
f 224 238 225
f 224 237 238
f 82 83 96
f 82 96 95
f 225 239 226
f 225 238 239
f 83 84 97
f 83 97 96
f 226 240 227
f 226 239 240
f 84 85 98
f 84 98 97
f 227 241 228
f 227 240 241
f 85 86 99
f 85 99 98
f 228 242 229
f 228 241 242
f 86 87 100
f 86 100 99
f 229 243 230
f 229 242 243
f 87 88 101
f 87 101 100
f 230 244 231
f 230 243 244
f 88 89 102
f 88 102 101
f 231 245 232
f 231 244 245
f 89 90 103
f 89 103 102
f 232 246 233
f 232 245 246
f 90 91 104
f 90 104 103
f 233 247 234
f 233 246 247
f 92 93 106
f 92 106 105
f 235 249 236
f 235 248 249
f 93 94 107
f 93 107 106
f 236 250 237
f 236 249 250
f 94 95 108
f 94 108 107
f 237 251 238
f 237 250 251
f 95 96 109
f 95 109 108
f 238 252 239
f 238 251 252
f 96 97 110
f 96 110 109
f 239 253 240
f 239 252 253
f 97 98 111
f 97 111 110
f 240 254 241
f 240 253 254
f 98 99 112
f 98 112 111
f 241 255 242
f 241 254 255
f 99 100 113
f 99 113 112
f 242 256 243
f 242 255 256
f 100 101 114
f 100 114 113
f 243 257 244
f 243 256 257
f 101 102 115
f 101 115 114
f 244 258 245
f 244 257 258
f 102 103 116
f 102 116 115
f 245 259 246
f 245 258 259
f 103 104 117
f 103 117 116
f 246 260 247
f 246 259 260
f 105 106 119
f 105 119 118
f 248 262 249
f 248 261 262
f 106 107 120
f 106 120 119
f 249 263 250
f 249 262 263
f 107 108 121
f 107 121 120
f 250 264 251
f 250 263 264
f 108 109 122
f 108 122 121
f 251 265 252
f 251 264 265
f 109 110 123
f 109 123 122
f 252 266 253
f 252 265 266
f 110 111 124
f 110 124 123
f 253 267 254
f 253 266 267
f 111 112 125
f 111 125 124
f 254 268 255
f 254 267 268
f 112 113 126
f 112 126 125
f 255 269 256
f 255 268 269
f 113 114 127
f 113 127 126
f 256 270 257
f 256 269 270
f 114 115 128
f 114 128 127
f 257 271 258
f 257 270 271
f 115 116 129
f 115 129 128
f 258 272 259
f 258 271 272
f 116 117 130
f 116 130 129
f 259 273 260
f 259 272 273
f 118 119 132
f 118 132 131
f 261 275 262
f 261 274 275
f 119 120 133
f 119 133 132
f 262 276 263
f 262 275 276
f 120 121 134
f 120 134 133
f 263 277 264
f 263 276 277
f 121 122 135
f 121 135 134
f 264 278 265
f 264 277 278
f 122 123 136
f 122 136 135
f 265 279 266
f 265 278 279
f 123 124 137
f 123 137 136
f 266 280 267
f 266 279 280
f 124 125 138
f 124 138 137
f 267 281 268
f 267 280 281
f 125 126 139
f 125 139 138
f 268 282 269
f 268 281 282
f 126 127 140
f 126 140 139
f 269 283 270
f 269 282 283
f 127 128 141
f 127 141 140
f 270 284 271
f 270 283 284
f 128 129 142
f 128 142 141
f 271 285 272
f 271 284 285
f 129 130 143
f 129 143 142
f 272 286 273
f 272 285 286
f 1 145 144
f 1 2 145
f 131 275 132
f 131 274 275
f 2 146 145
f 2 3 146
f 132 276 133
f 132 275 276
f 3 147 146
f 3 4 147
f 133 277 134
f 133 276 277
f 4 148 147
f 4 5 148
f 134 278 135
f 134 277 278
f 5 149 148
f 5 6 149
f 135 279 136
f 135 278 279
f 6 150 149
f 6 7 150
f 136 280 137
f 136 279 280
f 7 151 150
f 7 8 151
f 137 281 138
f 137 280 281
f 8 152 151
f 8 9 152
f 138 282 139
f 138 281 282
f 9 153 152
f 9 10 153
f 139 283 140
f 139 282 283
f 10 154 153
f 10 11 154
f 140 284 141
f 140 283 284
f 11 155 154
f 11 12 155
f 141 285 142
f 141 284 285
f 12 156 155
f 12 13 156
f 142 286 143
f 142 285 286
f 1 157 144
f 1 14 157
f 13 169 26
f 13 156 169
f 14 170 157
f 14 27 170
f 26 182 39
f 26 169 182
f 27 183 170
f 27 40 183
f 39 195 52
f 39 182 195
f 40 196 183
f 40 53 196
f 52 208 65
f 52 195 208
f 53 209 196
f 53 66 209
f 65 221 78
f 65 208 221
f 66 222 209
f 66 79 222
f 78 234 91
f 78 221 234
f 79 235 222
f 79 92 235
f 91 247 104
f 91 234 247
f 92 248 235
f 92 105 248
f 104 260 117
f 104 247 260
f 105 261 248
f 105 118 261
f 117 273 130
f 117 260 273
f 118 274 261
f 118 131 274
f 130 286 143
f 130 273 286
